<mxfile host="Electron" modified="2023-10-16T11:29:45.923Z" agent="Mozilla/5.0 (Windows NT 10.0; Win64; x64) AppleWebKit/537.36 (KHTML, like Gecko) draw.io/22.0.2 Chrome/114.0.5735.289 Electron/25.8.4 Safari/537.36" etag="-0xbYhvP-v61sTwS9pPm" version="22.0.2" type="device">
  <diagram name="Страница — 1" id="OUxYfs1oIkSmJ2YJ8uc_">
    <mxGraphModel dx="1195" dy="703" grid="1" gridSize="10" guides="1" tooltips="1" connect="1" arrows="1" fold="1" page="1" pageScale="1" pageWidth="827" pageHeight="1169" math="0" shadow="0">
      <root>
        <mxCell id="0" />
        <mxCell id="1" parent="0" />
        <mxCell id="T6QIueb3kUIgSd46c0ys-5" style="edgeStyle=orthogonalEdgeStyle;rounded=0;orthogonalLoop=1;jettySize=auto;html=1;exitX=0.5;exitY=1;exitDx=0;exitDy=0;entryX=0.5;entryY=0;entryDx=0;entryDy=0;" edge="1" parent="1" source="T6QIueb3kUIgSd46c0ys-3" target="T6QIueb3kUIgSd46c0ys-4">
          <mxGeometry relative="1" as="geometry" />
        </mxCell>
        <mxCell id="T6QIueb3kUIgSd46c0ys-3" value="mov ax,[200+bp]" style="rounded=0;whiteSpace=wrap;html=1;" vertex="1" parent="1">
          <mxGeometry x="200" y="210" width="110" height="50" as="geometry" />
        </mxCell>
        <mxCell id="T6QIueb3kUIgSd46c0ys-7" style="edgeStyle=orthogonalEdgeStyle;rounded=0;orthogonalLoop=1;jettySize=auto;html=1;exitX=0.5;exitY=1;exitDx=0;exitDy=0;entryX=0.5;entryY=0;entryDx=0;entryDy=0;" edge="1" parent="1" source="T6QIueb3kUIgSd46c0ys-4" target="T6QIueb3kUIgSd46c0ys-6">
          <mxGeometry relative="1" as="geometry" />
        </mxCell>
        <mxCell id="T6QIueb3kUIgSd46c0ys-4" value="mov bx,[300+bp]" style="rounded=0;whiteSpace=wrap;html=1;" vertex="1" parent="1">
          <mxGeometry x="200" y="290" width="110" height="50" as="geometry" />
        </mxCell>
        <mxCell id="T6QIueb3kUIgSd46c0ys-12" style="edgeStyle=orthogonalEdgeStyle;rounded=0;orthogonalLoop=1;jettySize=auto;html=1;exitX=0.5;exitY=1;exitDx=0;exitDy=0;entryX=0.5;entryY=0;entryDx=0;entryDy=0;" edge="1" parent="1" source="T6QIueb3kUIgSd46c0ys-6" target="T6QIueb3kUIgSd46c0ys-16">
          <mxGeometry relative="1" as="geometry">
            <mxPoint x="255" y="440" as="targetPoint" />
          </mxGeometry>
        </mxCell>
        <mxCell id="T6QIueb3kUIgSd46c0ys-6" value="mul bx" style="rounded=0;whiteSpace=wrap;html=1;" vertex="1" parent="1">
          <mxGeometry x="200" y="370" width="110" height="50" as="geometry" />
        </mxCell>
        <mxCell id="T6QIueb3kUIgSd46c0ys-44" value="" style="edgeStyle=orthogonalEdgeStyle;rounded=0;orthogonalLoop=1;jettySize=auto;html=1;" edge="1" parent="1" source="T6QIueb3kUIgSd46c0ys-10" target="T6QIueb3kUIgSd46c0ys-43">
          <mxGeometry relative="1" as="geometry" />
        </mxCell>
        <mxCell id="T6QIueb3kUIgSd46c0ys-10" value="mov cx,6" style="rounded=0;whiteSpace=wrap;html=1;" vertex="1" parent="1">
          <mxGeometry x="200" y="40" width="110" height="50" as="geometry" />
        </mxCell>
        <mxCell id="T6QIueb3kUIgSd46c0ys-33" style="edgeStyle=orthogonalEdgeStyle;rounded=0;orthogonalLoop=1;jettySize=auto;html=1;exitX=1;exitY=0.5;exitDx=0;exitDy=0;entryX=0;entryY=0.5;entryDx=0;entryDy=0;dashed=1;" edge="1" parent="1" source="T6QIueb3kUIgSd46c0ys-16" target="T6QIueb3kUIgSd46c0ys-22">
          <mxGeometry relative="1" as="geometry" />
        </mxCell>
        <mxCell id="T6QIueb3kUIgSd46c0ys-16" value="call 100" style="rounded=0;whiteSpace=wrap;html=1;" vertex="1" parent="1">
          <mxGeometry x="200" y="450" width="110" height="50" as="geometry" />
        </mxCell>
        <mxCell id="T6QIueb3kUIgSd46c0ys-20" style="edgeStyle=orthogonalEdgeStyle;rounded=0;orthogonalLoop=1;jettySize=auto;html=1;exitX=0.5;exitY=1;exitDx=0;exitDy=0;entryX=0.5;entryY=0;entryDx=0;entryDy=0;" edge="1" parent="1" source="T6QIueb3kUIgSd46c0ys-18" target="T6QIueb3kUIgSd46c0ys-19">
          <mxGeometry relative="1" as="geometry" />
        </mxCell>
        <mxCell id="T6QIueb3kUIgSd46c0ys-18" value="add [404],ax" style="rounded=0;whiteSpace=wrap;html=1;" vertex="1" parent="1">
          <mxGeometry x="520" y="200" width="110" height="50" as="geometry" />
        </mxCell>
        <mxCell id="T6QIueb3kUIgSd46c0ys-27" style="edgeStyle=orthogonalEdgeStyle;rounded=0;orthogonalLoop=1;jettySize=auto;html=1;exitX=0.5;exitY=1;exitDx=0;exitDy=0;entryX=0.5;entryY=0;entryDx=0;entryDy=0;" edge="1" parent="1" source="T6QIueb3kUIgSd46c0ys-19" target="T6QIueb3kUIgSd46c0ys-26">
          <mxGeometry relative="1" as="geometry" />
        </mxCell>
        <mxCell id="T6QIueb3kUIgSd46c0ys-19" value="adc [402],dx" style="rounded=0;whiteSpace=wrap;html=1;" vertex="1" parent="1">
          <mxGeometry x="520" y="280" width="110" height="50" as="geometry" />
        </mxCell>
        <mxCell id="T6QIueb3kUIgSd46c0ys-24" style="edgeStyle=orthogonalEdgeStyle;rounded=0;orthogonalLoop=1;jettySize=auto;html=1;exitX=0.5;exitY=1;exitDx=0;exitDy=0;entryX=0.5;entryY=0;entryDx=0;entryDy=0;" edge="1" parent="1" source="T6QIueb3kUIgSd46c0ys-22" target="T6QIueb3kUIgSd46c0ys-23">
          <mxGeometry relative="1" as="geometry" />
        </mxCell>
        <mxCell id="T6QIueb3kUIgSd46c0ys-22" value="push bx" style="rounded=0;whiteSpace=wrap;html=1;" vertex="1" parent="1">
          <mxGeometry x="520" y="40" width="110" height="50" as="geometry" />
        </mxCell>
        <mxCell id="T6QIueb3kUIgSd46c0ys-25" style="edgeStyle=orthogonalEdgeStyle;rounded=0;orthogonalLoop=1;jettySize=auto;html=1;exitX=0.5;exitY=1;exitDx=0;exitDy=0;entryX=0.5;entryY=0;entryDx=0;entryDy=0;" edge="1" parent="1" source="T6QIueb3kUIgSd46c0ys-23" target="T6QIueb3kUIgSd46c0ys-18">
          <mxGeometry relative="1" as="geometry" />
        </mxCell>
        <mxCell id="T6QIueb3kUIgSd46c0ys-23" value="mov bx,0" style="rounded=0;whiteSpace=wrap;html=1;" vertex="1" parent="1">
          <mxGeometry x="520" y="120" width="110" height="50" as="geometry" />
        </mxCell>
        <mxCell id="T6QIueb3kUIgSd46c0ys-30" style="edgeStyle=orthogonalEdgeStyle;rounded=0;orthogonalLoop=1;jettySize=auto;html=1;exitX=0.5;exitY=1;exitDx=0;exitDy=0;entryX=0.5;entryY=0;entryDx=0;entryDy=0;" edge="1" parent="1" source="T6QIueb3kUIgSd46c0ys-26" target="T6QIueb3kUIgSd46c0ys-29">
          <mxGeometry relative="1" as="geometry" />
        </mxCell>
        <mxCell id="T6QIueb3kUIgSd46c0ys-26" value="adc [400],bx" style="rounded=0;whiteSpace=wrap;html=1;" vertex="1" parent="1">
          <mxGeometry x="520" y="360" width="110" height="50" as="geometry" />
        </mxCell>
        <mxCell id="T6QIueb3kUIgSd46c0ys-32" style="edgeStyle=orthogonalEdgeStyle;rounded=0;orthogonalLoop=1;jettySize=auto;html=1;exitX=0.5;exitY=1;exitDx=0;exitDy=0;entryX=0.5;entryY=0;entryDx=0;entryDy=0;" edge="1" parent="1" source="T6QIueb3kUIgSd46c0ys-29" target="T6QIueb3kUIgSd46c0ys-31">
          <mxGeometry relative="1" as="geometry" />
        </mxCell>
        <mxCell id="T6QIueb3kUIgSd46c0ys-29" value="pop bx" style="rounded=0;whiteSpace=wrap;html=1;" vertex="1" parent="1">
          <mxGeometry x="520" y="440" width="110" height="50" as="geometry" />
        </mxCell>
        <mxCell id="T6QIueb3kUIgSd46c0ys-36" style="edgeStyle=orthogonalEdgeStyle;rounded=0;orthogonalLoop=1;jettySize=auto;html=1;exitX=0;exitY=0.5;exitDx=0;exitDy=0;entryX=1;entryY=0.5;entryDx=0;entryDy=0;dashed=1;" edge="1" parent="1" source="T6QIueb3kUIgSd46c0ys-31" target="T6QIueb3kUIgSd46c0ys-35">
          <mxGeometry relative="1" as="geometry" />
        </mxCell>
        <mxCell id="T6QIueb3kUIgSd46c0ys-31" value="ret" style="rounded=0;whiteSpace=wrap;html=1;" vertex="1" parent="1">
          <mxGeometry x="520" y="520" width="110" height="50" as="geometry" />
        </mxCell>
        <mxCell id="T6QIueb3kUIgSd46c0ys-39" style="edgeStyle=orthogonalEdgeStyle;rounded=0;orthogonalLoop=1;jettySize=auto;html=1;exitX=0.5;exitY=1;exitDx=0;exitDy=0;entryX=0.5;entryY=0;entryDx=0;entryDy=0;" edge="1" parent="1" source="T6QIueb3kUIgSd46c0ys-35" target="T6QIueb3kUIgSd46c0ys-38">
          <mxGeometry relative="1" as="geometry" />
        </mxCell>
        <mxCell id="T6QIueb3kUIgSd46c0ys-35" value="add bp,2" style="rounded=0;whiteSpace=wrap;html=1;" vertex="1" parent="1">
          <mxGeometry x="200" y="520" width="110" height="50" as="geometry" />
        </mxCell>
        <mxCell id="T6QIueb3kUIgSd46c0ys-40" style="edgeStyle=orthogonalEdgeStyle;rounded=0;orthogonalLoop=1;jettySize=auto;html=1;exitX=0;exitY=0.5;exitDx=0;exitDy=0;entryX=0;entryY=0.5;entryDx=0;entryDy=0;" edge="1" parent="1" source="T6QIueb3kUIgSd46c0ys-38" target="T6QIueb3kUIgSd46c0ys-3">
          <mxGeometry relative="1" as="geometry" />
        </mxCell>
        <mxCell id="T6QIueb3kUIgSd46c0ys-42" style="edgeStyle=orthogonalEdgeStyle;rounded=0;orthogonalLoop=1;jettySize=auto;html=1;exitX=0.5;exitY=1;exitDx=0;exitDy=0;entryX=0.5;entryY=0;entryDx=0;entryDy=0;" edge="1" parent="1" source="T6QIueb3kUIgSd46c0ys-38" target="T6QIueb3kUIgSd46c0ys-41">
          <mxGeometry relative="1" as="geometry" />
        </mxCell>
        <mxCell id="T6QIueb3kUIgSd46c0ys-38" value="loop" style="rounded=0;whiteSpace=wrap;html=1;" vertex="1" parent="1">
          <mxGeometry x="200" y="600" width="110" height="50" as="geometry" />
        </mxCell>
        <mxCell id="T6QIueb3kUIgSd46c0ys-41" value="hlt" style="rounded=0;whiteSpace=wrap;html=1;" vertex="1" parent="1">
          <mxGeometry x="200" y="680" width="110" height="50" as="geometry" />
        </mxCell>
        <mxCell id="T6QIueb3kUIgSd46c0ys-45" value="" style="edgeStyle=orthogonalEdgeStyle;rounded=0;orthogonalLoop=1;jettySize=auto;html=1;" edge="1" parent="1" source="T6QIueb3kUIgSd46c0ys-43" target="T6QIueb3kUIgSd46c0ys-3">
          <mxGeometry relative="1" as="geometry" />
        </mxCell>
        <mxCell id="T6QIueb3kUIgSd46c0ys-43" value="mov bp,0" style="rounded=0;whiteSpace=wrap;html=1;" vertex="1" parent="1">
          <mxGeometry x="200" y="120" width="110" height="50" as="geometry" />
        </mxCell>
      </root>
    </mxGraphModel>
  </diagram>
</mxfile>
